{
  "accessors": [
    {
      "bufferView": 2,
      "componentType": 5126,
      "count": 65532,
      "max": [
        1.6061955690383911,
        6.950960636138916,
        16.372583389282227
      ],
      "min": [
        -2.588618278503418,
        -0.8271499872207642,
        12.608774185180664
      ],
      "type": "VEC3"
    },
    {
      "bufferView": 2,
      "byteOffset": 786384,
      "componentType": 5126,
      "count": 65532,
      "max": [
        0.9999926686286926,
        0.9999879002571106,
        0.9999849200248718
      ],
      "min": [
        -0.999972403049469,
        -0.9994584918022156,
        -0.9999960064888
      ],
      "type": "VEC3"
    },
    {
      "bufferView": 1,
      "componentType": 5126,
      "count": 65532,
      "max": [
        0.9994231462478638,
        0.9741209745407104
      ],
      "min": [
        0.00048828125,
        0.0004887176910415292
      ],
      "type": "VEC2"
    },
    {
      "bufferView": 0,
      "componentType": 5125,
      "count": 271680,
      "type": "SCALAR"
    },
    {
      "bufferView": 2,
      "byteOffset": 1572768,
      "componentType": 5126,
      "count": 65533,
      "max": [
        7.294305324554443,
        6.973653316497803,
        17.864770889282227
      ],
      "min": [
        -2.5424346923828125,
        -11.98287296295166,
        13.682933807373047
      ],
      "type": "VEC3"
    },
    {
      "bufferView": 2,
      "byteOffset": 2359164,
      "componentType": 5126,
      "count": 65533,
      "max": [
        0.9999451041221619,
        0.9997653365135193,
        1.0
      ],
      "min": [
        -0.9999944567680359,
        -0.999977171421051,
        -0.9999939203262329
      ],
      "type": "VEC3"
    },
    {
      "bufferView": 1,
      "byteOffset": 524256,
      "componentType": 5126,
      "count": 65533,
      "max": [
        0.9994434714317322,
        0.9597806334495544
      ],
      "min": [
        0.00048828125,
        0.000495095388032496
      ],
      "type": "VEC2"
    },
    {
      "bufferView": 0,
      "byteOffset": 1086720,
      "componentType": 5125,
      "count": 254505,
      "type": "SCALAR"
    },
    {
      "bufferView": 2,
      "byteOffset": 3145560,
      "componentType": 5126,
      "count": 60999,
      "max": [
        7.5378313064575195,
        1.1686681509017944,
        18.075246810913086
      ],
      "min": [
        -0.9641214609146118,
        -12.363628387451172,
        12.589195251464844
      ],
      "type": "VEC3"
    },
    {
      "bufferView": 2,
      "byteOffset": 3877548,
      "componentType": 5126,
      "count": 60999,
      "max": [
        0.9998914003372192,
        0.9997690916061401,
        0.9999426007270813
      ],
      "min": [
        -0.9999901056289673,
        -0.9998955726623535,
        -0.9999440908432007
      ],
      "type": "VEC3"
    },
    {
      "bufferView": 1,
      "byteOffset": 1048520,
      "componentType": 5126,
      "count": 60999,
      "max": [
        0.999509871006012,
        0.9487303495407104
      ],
      "min": [
        0.00048828125,
        0.000490982667542994
      ],
      "type": "VEC2"
    },
    {
      "bufferView": 0,
      "byteOffset": 2104740,
      "componentType": 5125,
      "count": 223713,
      "type": "SCALAR"
    }
  ],
  "asset": {
    "extras": {
      "author": "Indy Sarlet (https://sketchfab.com/indy.sarlet)",
      "license": "CC-BY-4.0 (http://creativecommons.org/licenses/by/4.0/)",
      "source": "https://sketchfab.com/3d-models/taxidermy-west-african-crocodile-603b942837334f8cb09ce12e2d4233c0",
      "title": "Taxidermy West African Crocodile"
    },
    "generator": "Sketchfab-16.16.0",
    "version": "2.0"
  },
  "bufferViews": [
    {
      "buffer": 0,
      "byteLength": 2999592,
      "name": "floatBufferViews",
      "target": 34963
    },
    {
      "buffer": 0,
      "byteLength": 1536512,
      "byteOffset": 2999592,
      "byteStride": 8,
      "name": "floatBufferViews",
      "target": 34962
    },
    {
      "buffer": 0,
      "byteLength": 4609536,
      "byteOffset": 4536104,
      "byteStride": 12,
      "name": "floatBufferViews",
      "target": 34962
    }
  ],
  "buffers": [
    {
      "byteLength": 9145640,
      "uri": "scene.bin"
    }
  ],
  "extensionsUsed": [
    "KHR_materials_unlit"
  ],
  "images": [
    {
      "uri": "textures/tex_u1_v1_baseColor.jpeg"
    }
  ],
  "materials": [
    {
      "doubleSided": true,
      "extensions": {
        "KHR_materials_unlit": {}
      },
      "name": "tex_u1_v1",
      "pbrMetallicRoughness": {
        "baseColorTexture": {
          "index": 0
        },
        "metallicFactor": 0.0
      }
    }
  ],
  "meshes": [
    {
      "name": "Object_0",
      "primitives": [
        {
          "attributes": {
            "NORMAL": 1,
            "POSITION": 0,
            "TEXCOORD_0": 2
          },
          "indices": 3,
          "material": 0,
          "mode": 4
        }
      ]
    },
    {
      "name": "Object_1",
      "primitives": [
        {
          "attributes": {
            "NORMAL": 5,
            "POSITION": 4,
            "TEXCOORD_0": 6
          },
          "indices": 7,
          "material": 0,
          "mode": 4
        }
      ]
    },
    {
      "name": "Object_2",
      "primitives": [
        {
          "attributes": {
            "NORMAL": 9,
            "POSITION": 8,
            "TEXCOORD_0": 10
          },
          "indices": 11,
          "material": 0,
          "mode": 4
        }
      ]
    }
  ],
  "nodes": [
    {
      "children": [
        1
      ],
      "matrix": [
        1.0,
        0.0,
        0.0,
        0.0,
        0.0,
        2.220446049250313e-16,
        -1.0,
        0.0,
        0.0,
        1.0,
        2.220446049250313e-16,
        0.0,
        0.0,
        0.0,
        0.0,
        1.0
      ],
      "name": "Sketchfab_model"
    },
    {
      "children": [
        2,
        3,
        4
      ],
      "name": "model.obj.cleaner.materialmerger.gles"
    },
    {
      "mesh": 0,
      "name": "Object_2"
    },
    {
      "mesh": 1,
      "name": "Object_3"
    },
    {
      "mesh": 2,
      "name": "Object_4"
    }
  ],
  "samplers": [
    {
      "magFilter": 9729,
      "minFilter": 9987,
      "wrapS": 10497,
      "wrapT": 10497
    }
  ],
  "scene": 0,
  "scenes": [
    {
      "name": "Sketchfab_Scene",
      "nodes": [
        0
      ]
    }
  ],
  "textures": [
    {
      "sampler": 0,
      "source": 0
    }
  ]
}
