{
  "accessors": [
    {
      "bufferView": 2,
      "componentType": 5126,
      "count": 65532,
      "max": [
        19.02129364013672,
        21.002098083496094,
        76.5852279663086
      ],
      "min": [
        -14.546781539916992,
        -22.19037437438965,
        36.05118942260742
      ],
      "type": "VEC3"
    },
    {
      "bufferView": 2,
      "byteOffset": 786384,
      "componentType": 5126,
      "count": 65532,
      "max": [
        0.9999735951423645,
        0.9999716281890869,
        0.9999896287918091
      ],
      "min": [
        -0.9999706745147705,
        -0.9999892115592957,
        -0.9999940395355225
      ],
      "type": "VEC3"
    },
    {
      "bufferView": 1,
      "componentType": 5126,
      "count": 65532,
      "max": [
        0.9997366070747375,
        0.9958494901657104
      ],
      "min": [
        0.000244140625,
        0.008526702411472797
      ],
      "type": "VEC2"
    },
    {
      "bufferView": 0,
      "componentType": 5125,
      "count": 130053,
      "type": "SCALAR"
    },
    {
      "bufferView": 2,
      "byteOffset": 1572768,
      "componentType": 5126,
      "count": 65533,
      "max": [
        16.40703010559082,
        21.179235458374023,
        76.58043670654297
      ],
      "min": [
        -22.614822387695313,
        -22.100576400756836,
        39.79416275024414
      ],
      "type": "VEC3"
    },
    {
      "bufferView": 2,
      "byteOffset": 2359164,
      "componentType": 5126,
      "count": 65533,
      "max": [
        0.9998735189437866,
        0.999997615814209,
        0.9999083876609802
      ],
      "min": [
        -0.9999887347221375,
        -0.9999457001686096,
        -0.9999836087226868
      ],
      "type": "VEC3"
    },
    {
      "bufferView": 1,
      "byteOffset": 524256,
      "componentType": 5126,
      "count": 65533,
      "max": [
        0.9997502565383911,
        0.8610838651657104
      ],
      "min": [
        0.000244140625,
        0.005558509845286608
      ],
      "type": "VEC2"
    },
    {
      "bufferView": 0,
      "byteOffset": 520212,
      "componentType": 5125,
      "count": 132309,
      "type": "SCALAR"
    },
    {
      "bufferView": 2,
      "byteOffset": 3145560,
      "componentType": 5126,
      "count": 65532,
      "max": [
        18.328218460083008,
        12.516380310058594,
        72.6898422241211
      ],
      "min": [
        -12.439530372619629,
        -22.071170806884766,
        35.984657287597656
      ],
      "type": "VEC3"
    },
    {
      "bufferView": 2,
      "byteOffset": 3931944,
      "componentType": 5126,
      "count": 65532,
      "max": [
        0.9996686577796936,
        0.9999806880950928,
        0.999900758266449
      ],
      "min": [
        -0.9999759793281555,
        -0.9999853372573853,
        -0.9999866485595703
      ],
      "type": "VEC3"
    },
    {
      "bufferView": 1,
      "byteOffset": 1048520,
      "componentType": 5126,
      "count": 65532,
      "max": [
        0.9996943473815918,
        0.6022948026657104
      ],
      "min": [
        0.000244140625,
        0.003611583961173892
      ],
      "type": "VEC2"
    },
    {
      "bufferView": 0,
      "byteOffset": 1049448,
      "componentType": 5125,
      "count": 162555,
      "type": "SCALAR"
    },
    {
      "bufferView": 2,
      "byteOffset": 4718328,
      "componentType": 5126,
      "count": 65533,
      "max": [
        18.955795288085938,
        11.766215324401855,
        72.61689758300781
      ],
      "min": [
        -10.691762924194336,
        -17.77884292602539,
        53.6375617980957
      ],
      "type": "VEC3"
    },
    {
      "bufferView": 2,
      "byteOffset": 5504724,
      "componentType": 5126,
      "count": 65533,
      "max": [
        0.999965250492096,
        0.9999840259552002,
        0.9997230768203735
      ],
      "min": [
        -0.9998695254325867,
        -0.999954879283905,
        -0.9999850988388062
      ],
      "type": "VEC3"
    },
    {
      "bufferView": 1,
      "byteOffset": 1572776,
      "componentType": 5126,
      "count": 65533,
      "max": [
        0.9997062087059021,
        0.5446776151657104
      ],
      "min": [
        0.000244140625,
        0.0036053850781172514
      ],
      "type": "VEC2"
    },
    {
      "bufferView": 0,
      "byteOffset": 1699668,
      "componentType": 5125,
      "count": 140964,
      "type": "SCALAR"
    },
    {
      "bufferView": 2,
      "byteOffset": 6291120,
      "componentType": 5126,
      "count": 65532,
      "max": [
        18.955795288085938,
        13.042119979858398,
        72.49990844726563
      ],
      "min": [
        -20.335866928100586,
        -17.834104537963867,
        5.029540061950684
      ],
      "type": "VEC3"
    },
    {
      "bufferView": 2,
      "byteOffset": 7077504,
      "componentType": 5126,
      "count": 65532,
      "max": [
        0.9999141693115234,
        0.9999550580978394,
        0.9999932050704956
      ],
      "min": [
        -0.999985933303833,
        -0.9999892115592957,
        -0.9999547600746155
      ],
      "type": "VEC3"
    },
    {
      "bufferView": 1,
      "byteOffset": 2097040,
      "componentType": 5126,
      "count": 65532,
      "max": [
        0.9997550845146179,
        0.5446776151657104
      ],
      "min": [
        0.000244140625,
        0.002198000205680728
      ],
      "type": "VEC2"
    },
    {
      "bufferView": 0,
      "byteOffset": 2263524,
      "componentType": 5125,
      "count": 176703,
      "type": "SCALAR"
    },
    {
      "bufferView": 2,
      "byteOffset": 7863888,
      "componentType": 5126,
      "count": 65532,
      "max": [
        4.694854736328125,
        13.822831153869629,
        20.413835525512695
      ],
      "min": [
        -21.486236572265625,
        -11.381867408752441,
        4.47261905670166
      ],
      "type": "VEC3"
    },
    {
      "bufferView": 2,
      "byteOffset": 8650272,
      "componentType": 5126,
      "count": 65532,
      "max": [
        0.9999377131462097,
        0.9999279379844666,
        0.9999940991401672
      ],
      "min": [
        -0.9999853372573853,
        -0.9999924302101135,
        -0.9998091459274292
      ],
      "type": "VEC3"
    },
    {
      "bufferView": 1,
      "byteOffset": 2621296,
      "componentType": 5126,
      "count": 65532,
      "max": [
        0.9994826316833496,
        0.12963856756687164
      ],
      "min": [
        0.000244140625,
        0.00024845136795192957
      ],
      "type": "VEC2"
    },
    {
      "bufferView": 0,
      "byteOffset": 2970336,
      "componentType": 5125,
      "count": 201855,
      "type": "SCALAR"
    },
    {
      "bufferView": 2,
      "byteOffset": 9436656,
      "componentType": 5126,
      "count": 65532,
      "max": [
        18.955795288085938,
        17.601594924926758,
        36.473663330078125
      ],
      "min": [
        -21.2722110748291,
        -17.128129959106445,
        4.267879486083984
      ],
      "type": "VEC3"
    },
    {
      "bufferView": 2,
      "byteOffset": 10223040,
      "componentType": 5126,
      "count": 65532,
      "max": [
        0.9997515678405762,
        0.9998213648796082,
        0.9999994039535522
      ],
      "min": [
        -0.9999210834503174,
        -0.9999924302101135,
        -0.9999815225601196
      ],
      "type": "VEC3"
    },
    {
      "bufferView": 1,
      "byteOffset": 3145552,
      "componentType": 5126,
      "count": 65532,
      "max": [
        0.9997528791427612,
        0.14037473499774933
      ],
      "min": [
        0.000244140625,
        0.0002442790428176522
      ],
      "type": "VEC2"
    },
    {
      "bufferView": 0,
      "byteOffset": 3777756,
      "componentType": 5125,
      "count": 197472,
      "type": "SCALAR"
    },
    {
      "bufferView": 2,
      "byteOffset": 11009424,
      "componentType": 5126,
      "count": 65532,
      "max": [
        12.435827255249023,
        15.82111644744873,
        36.46062088012695
      ],
      "min": [
        -9.465794563293457,
        -12.86983871459961,
        3.2927799224853516
      ],
      "type": "VEC3"
    },
    {
      "bufferView": 2,
      "byteOffset": 11795808,
      "componentType": 5126,
      "count": 65532,
      "max": [
        0.9999788999557495,
        0.9999107718467712,
        0.9999994039535522
      ],
      "min": [
        -0.999996542930603,
        -0.9999960064888,
        -0.9995644092559814
      ],
      "type": "VEC3"
    },
    {
      "bufferView": 1,
      "byteOffset": 3669808,
      "componentType": 5126,
      "count": 65532,
      "max": [
        0.9997357130050659,
        0.2066483050584793
      ],
      "min": [
        0.000244140625,
        0.0002570344367995858
      ],
      "type": "VEC2"
    },
    {
      "bufferView": 0,
      "byteOffset": 4567644,
      "componentType": 5125,
      "count": 210204,
      "type": "SCALAR"
    },
    {
      "bufferView": 2,
      "byteOffset": 12582192,
      "componentType": 5126,
      "count": 48542,
      "max": [
        7.525214195251465,
        11.774938583374023,
        54.01919937133789
      ],
      "min": [
        -3.6774580478668213,
        -16.89952278137207,
        4.112588882446289
      ],
      "type": "VEC3"
    },
    {
      "bufferView": 2,
      "byteOffset": 13164696,
      "componentType": 5126,
      "count": 48542,
      "max": [
        0.9999926090240479,
        0.9998428821563721,
        0.9999631643295288
      ],
      "min": [
        -0.9999570846557617,
        -0.9998946189880371,
        -0.9987923502922058
      ],
      "type": "VEC3"
    },
    {
      "bufferView": 1,
      "byteOffset": 4194064,
      "componentType": 5126,
      "count": 48542,
      "max": [
        0.9997482299804688,
        0.26245108246803284
      ],
      "min": [
        0.000244140625,
        0.0012260867515578866
      ],
      "type": "VEC2"
    },
    {
      "bufferView": 0,
      "byteOffset": 5408460,
      "componentType": 5125,
      "count": 129639,
      "type": "SCALAR"
    }
  ],
  "asset": {
    "extras": {
      "author": "Indy Sarlet (https://sketchfab.com/indy.sarlet)",
      "license": "CC-BY-4.0 (http://creativecommons.org/licenses/by/4.0/)",
      "source": "https://sketchfab.com/3d-models/massive-beech-tree-trunk-with-engravings-roots-b4bb1a13a6be4d5fb841059b0d9aec5a",
      "title": "Massive Beech Tree Trunk With Engravings / Roots"
    },
    "generator": "Sketchfab-16.16.0",
    "version": "2.0"
  },
  "bufferViews": [
    {
      "buffer": 0,
      "byteLength": 5927016,
      "name": "floatBufferViews",
      "target": 34963
    },
    {
      "buffer": 0,
      "byteLength": 4582400,
      "byteOffset": 5927016,
      "byteStride": 8,
      "name": "floatBufferViews",
      "target": 34962
    },
    {
      "buffer": 0,
      "byteLength": 13747200,
      "byteOffset": 10509416,
      "byteStride": 12,
      "name": "floatBufferViews",
      "target": 34962
    }
  ],
  "buffers": [
    {
      "byteLength": 24256616,
      "uri": "scene.bin"
    }
  ],
  "extensionsUsed": [
    "KHR_materials_unlit"
  ],
  "images": [
    {
      "uri": "textures/tex_u1_v1_baseColor.jpeg"
    }
  ],
  "materials": [
    {
      "doubleSided": true,
      "extensions": {
        "KHR_materials_unlit": {}
      },
      "name": "tex_u1_v1",
      "pbrMetallicRoughness": {
        "baseColorTexture": {
          "index": 0
        },
        "metallicFactor": 0.0
      }
    }
  ],
  "meshes": [
    {
      "name": "Object_0",
      "primitives": [
        {
          "attributes": {
            "NORMAL": 1,
            "POSITION": 0,
            "TEXCOORD_0": 2
          },
          "indices": 3,
          "material": 0,
          "mode": 4
        }
      ]
    },
    {
      "name": "Object_1",
      "primitives": [
        {
          "attributes": {
            "NORMAL": 5,
            "POSITION": 4,
            "TEXCOORD_0": 6
          },
          "indices": 7,
          "material": 0,
          "mode": 4
        }
      ]
    },
    {
      "name": "Object_2",
      "primitives": [
        {
          "attributes": {
            "NORMAL": 9,
            "POSITION": 8,
            "TEXCOORD_0": 10
          },
          "indices": 11,
          "material": 0,
          "mode": 4
        }
      ]
    },
    {
      "name": "Object_3",
      "primitives": [
        {
          "attributes": {
            "NORMAL": 13,
            "POSITION": 12,
            "TEXCOORD_0": 14
          },
          "indices": 15,
          "material": 0,
          "mode": 4
        }
      ]
    },
    {
      "name": "Object_4",
      "primitives": [
        {
          "attributes": {
            "NORMAL": 17,
            "POSITION": 16,
            "TEXCOORD_0": 18
          },
          "indices": 19,
          "material": 0,
          "mode": 4
        }
      ]
    },
    {
      "name": "Object_5",
      "primitives": [
        {
          "attributes": {
            "NORMAL": 21,
            "POSITION": 20,
            "TEXCOORD_0": 22
          },
          "indices": 23,
          "material": 0,
          "mode": 4
        }
      ]
    },
    {
      "name": "Object_6",
      "primitives": [
        {
          "attributes": {
            "NORMAL": 25,
            "POSITION": 24,
            "TEXCOORD_0": 26
          },
          "indices": 27,
          "material": 0,
          "mode": 4
        }
      ]
    },
    {
      "name": "Object_7",
      "primitives": [
        {
          "attributes": {
            "NORMAL": 29,
            "POSITION": 28,
            "TEXCOORD_0": 30
          },
          "indices": 31,
          "material": 0,
          "mode": 4
        }
      ]
    },
    {
      "name": "Object_8",
      "primitives": [
        {
          "attributes": {
            "NORMAL": 33,
            "POSITION": 32,
            "TEXCOORD_0": 34
          },
          "indices": 35,
          "material": 0,
          "mode": 4
        }
      ]
    }
  ],
  "nodes": [
    {
      "children": [
        1
      ],
      "matrix": [
        1.0,
        0.0,
        0.0,
        0.0,
        0.0,
        2.220446049250313e-16,
        -1.0,
        0.0,
        0.0,
        1.0,
        2.220446049250313e-16,
        0.0,
        0.0,
        0.0,
        0.0,
        1.0
      ],
      "name": "Sketchfab_model"
    },
    {
      "children": [
        2,
        3,
        4,
        5,
        6,
        7,
        8,
        9,
        10
      ],
      "name": "model.obj.cleaner.materialmerger.gles"
    },
    {
      "mesh": 0,
      "name": "Object_2"
    },
    {
      "mesh": 1,
      "name": "Object_3"
    },
    {
      "mesh": 2,
      "name": "Object_4"
    },
    {
      "mesh": 3,
      "name": "Object_5"
    },
    {
      "mesh": 4,
      "name": "Object_6"
    },
    {
      "mesh": 5,
      "name": "Object_7"
    },
    {
      "mesh": 6,
      "name": "Object_8"
    },
    {
      "mesh": 7,
      "name": "Object_9"
    },
    {
      "mesh": 8,
      "name": "Object_10"
    }
  ],
  "samplers": [
    {
      "magFilter": 9729,
      "minFilter": 9987,
      "wrapS": 10497,
      "wrapT": 10497
    }
  ],
  "scene": 0,
  "scenes": [
    {
      "name": "Sketchfab_Scene",
      "nodes": [
        0
      ]
    }
  ],
  "textures": [
    {
      "sampler": 0,
      "source": 0
    }
  ]
}
